<svg width="20" height="20" viewBox="0 0 20 20" fill="none" xmlns="http://www.w3.org/2000/svg">
<path fill-rule="evenodd" clip-rule="evenodd" d="M8.02081 11.116C8.5248 11.2478 8.90665 11.8754 8.56242 12.4548C8.37496 12.7135 7.85591 12.8743 7.38537 12.8722C7.19736 13.3937 7.86951 13.6591 8.35296 13.5344C8.9791 13.3729 9.35984 12.4804 9.0823 11.7566C8.79429 11.0515 8.08264 10.6314 7.19042 10.4395C6.88859 10.3655 6.32838 10.4007 6.17223 10.4034C6.04675 10.4124 5.96277 10.408 5.83285 10.4107C5.6767 10.394 4.94694 10.2378 4.58356 10.0652C3.94673 9.73771 3.3108 9.1267 2.91549 8.61131C2.74705 8.37143 2.57855 8.13141 2.41004 7.89153C2.35348 7.81141 2.30871 7.69635 2.22953 7.63962C2.15388 7.84538 2.09697 8.07336 2.04901 8.30902C1.99023 8.59782 1.98537 8.99157 2.03458 9.28784C2.17095 10.4234 2.6739 11.3111 3.59431 11.7782C3.91876 11.9428 4.42858 12.0934 4.98074 12.0373C5.71626 11.9016 6.27133 11.6533 6.88713 11.4039C7.15107 11.2783 7.58365 11.0017 8.02081 11.116ZM11.2344 14.6211C11.1846 14.6533 10.6869 14.7996 10.2739 14.5276C10.1598 14.4523 10.1655 14.4736 9.9996 14.2972C9.87607 14.4128 9.91396 14.3934 9.73241 14.5204C9.51317 14.6844 9.10918 14.7177 8.79368 14.6284H8.77924V14.614C9.32877 14.4905 9.85948 14.0698 9.9996 13.5487C10.1533 14.0595 10.6353 14.463 11.2344 14.614V14.6211ZM10.1653 16.147C10.1123 16.2502 10.0593 16.3533 10.0064 16.4566C9.93422 16.3174 9.81145 16.0918 9.7392 15.9527C9.62059 15.7578 9.49255 15.5585 9.32043 15.2977C9.63954 15.1514 9.71616 15.1034 9.99196 14.8514C10.2229 15.027 10.3684 15.1812 10.6851 15.2905C10.6876 15.2953 10.69 15.3001 10.6924 15.3049C10.4831 15.5386 10.3181 15.865 10.1653 16.147ZM12.1728 13.8653C12.0573 13.9397 11.9417 14.014 11.8262 14.0884C11.7105 14.1234 11.2587 13.9388 11.1763 13.8941C10.9005 13.7445 10.6463 13.5305 10.4758 13.2751C10.4004 13.162 10.3366 13.02 10.2953 12.8792C9.98548 11.8229 10.95 10.8226 11.6384 10.4969C12.1207 10.2111 12.6687 10.1227 13.2703 9.99297C13.588 9.94025 13.9058 9.88746 14.2235 9.83467C15.0175 9.62849 15.6641 9.30966 16.1877 8.76944C16.4113 8.49392 16.617 8.18679 16.7365 7.79062C16.9905 6.9481 16.7146 5.82876 16.4476 5.14199C16.337 4.90204 16.2334 4.69088 16.101 4.42222C16.0779 4.6165 16.0543 4.65732 16.0433 4.80373C15.9855 5.08671 15.9277 5.3699 15.87 5.65295C15.6928 6.309 15.4106 6.8886 15.0612 7.3804C14.8301 7.70559 14.5652 8.04994 14.2596 8.33043C13.8974 8.66282 13.4481 8.91861 13.0031 9.15814C12.4195 9.4724 11.8057 9.7385 11.2702 10.0939C10.8463 10.375 10.0493 11.0364 10.0064 11.6557H9.99923C9.97271 11.5477 9.97438 11.5086 9.91254 11.3462C9.85105 11.1845 9.67561 10.9436 9.5443 10.7775C8.97472 10.1441 8.17376 9.73608 7.34184 9.3309C6.75339 9.02052 6.2022 8.68523 5.70272 8.28726C5.53629 8.15469 5.36362 7.94539 5.23328 7.77623C4.77003 7.17463 4.4013 6.54674 4.15735 5.71052C4.08039 5.42989 4.03222 5.1779 3.97684 4.8397C3.94998 4.67503 3.94047 4.55769 3.9191 4.40063C3.86135 4.47736 3.84449 4.52296 3.70971 4.78207C3.54107 5.135 3.3829 5.53021 3.29087 5.94085C3.2314 6.20633 3.20856 6.46323 3.16088 6.74697C3.08059 7.47 3.40573 8.1989 3.66634 8.55357C4.07962 9.11587 4.63234 9.4715 5.36327 9.71954C5.99087 9.9325 6.7758 9.93825 7.42852 10.137C8.10325 10.2926 8.55151 10.5664 8.98825 10.9143C9.41362 11.2545 9.97084 12.1186 9.70316 12.9296C9.55381 13.3821 9.19542 13.7147 8.77887 13.9228C8.64458 13.9769 8.33116 14.074 8.18674 14.0884C8.02066 13.9804 7.90469 13.8825 7.6885 13.8149C7.47891 13.7687 7.23885 13.8802 7.13967 13.9013C7.24558 14.0164 7.5007 14.2779 8.18674 14.9449C8.72737 15.548 9.03454 16.0774 9.42875 16.7731C9.57768 17.0358 9.71281 17.3085 9.8548 17.5864C9.89769 17.6703 9.97972 17.7918 10.0064 17.867C10.045 17.7938 10.123 17.6323 10.1653 17.5504C10.3145 17.2673 10.4638 16.9841 10.613 16.7011C10.9556 16.0732 11.3569 15.4528 11.8262 14.9449C12.0861 14.6882 12.3461 14.4315 12.606 14.1748C12.6927 14.086 12.7794 13.9972 12.866 13.9085V13.9013C12.6653 13.8367 12.3832 13.7597 12.1728 13.8653ZM8.187 9.21581C8.5306 9.33723 9.05667 9.50045 9.2918 9.56127C9.10407 9.28776 7.63969 8.61379 6.97386 6.15689C6.78522 5.4962 6.60103 4.59225 6.80056 3.76738C6.88197 3.24465 6.99336 2.9726 7.14715 2.62299C7.23383 2.45984 7.29879 2.31101 7.40713 2.13354C7.35897 2.13354 7.24827 2.19831 6.80778 2.39259C6.18719 2.76545 5.66647 3.17719 5.29857 3.80335C5.14381 4.06669 5.04796 4.38689 4.95198 4.70302C4.76599 5.48472 4.92186 6.42859 5.18302 6.94862C5.7932 8.16351 6.83478 8.73792 8.187 9.21581ZM17.9638 8.37378C17.9312 8.19832 17.8544 7.77751 17.7688 7.63962C17.6849 7.75987 17.4752 8.0571 17.3284 8.26585C16.7332 9.10449 16.0513 9.89089 14.967 10.2379C14.7206 10.3168 14.4475 10.3618 14.1799 10.4107C14.0669 10.4083 13.9537 10.4059 13.8406 10.4034C13.5779 10.3646 13.1559 10.3799 12.9163 10.4251C12.2903 10.543 11.8149 10.7465 11.4071 11.0728C10.7061 11.72 10.5812 12.8784 11.4288 13.448C11.9399 13.7017 12.7369 13.5383 12.6347 12.8794C12.5215 12.8673 12.4084 12.8554 12.2953 12.8434C11.9814 12.7856 11.6571 12.7185 11.4937 12.5123C11.0771 11.948 11.3946 11.2128 12.0859 11.1016C12.433 11.0419 12.7461 11.2129 12.9524 11.3176C13.2749 11.4567 13.5975 11.5959 13.92 11.735C14.2673 11.8623 14.5831 11.9467 14.9815 12.0229C15.1763 12.056 15.3972 12.0498 15.6025 12.0229C16.5319 11.8671 16.9901 11.481 17.4511 10.8281C17.8209 10.2196 18.1053 9.37979 17.9638 8.37378ZM11.9925 9.15824C13.3278 8.72602 14.5129 7.8642 14.9748 6.63914C15.0505 6.41683 15.0756 6.23826 15.1192 5.977C15.1362 5.81247 15.1445 5.55218 15.1337 5.26442C15.1192 5.12051 15.1048 4.97652 15.0904 4.83261C14.8622 3.81359 14.3514 3.15042 13.6027 2.65177C13.3908 2.51056 12.8908 2.22363 12.6063 2.13354C12.7026 2.31821 12.7989 2.50301 12.8951 2.68775C13.0373 3.0182 13.1316 3.36905 13.2128 3.76738C13.3708 4.54209 13.2419 5.49177 13.0612 6.1353C12.4941 8.15555 11.2645 9.12849 10.7072 9.54688C10.9189 9.51574 10.9599 9.49651 11.1476 9.43175C11.4359 9.33516 11.7172 9.24736 11.9925 9.15824Z" fill="#76777f"/>
</svg>
