<svg width="20" height="20" viewBox="0 0 20 20" fill="none" xmlns="http://www.w3.org/2000/svg">
<path d="M10.001 1.67571L10.0053 1.66675L10.0085 1.69118L10.0872 1.85305L10.339 2.37294L10.4064 2.51149L10.4564 2.61341L10.4895 2.6806L10.5391 2.7805L10.5888 2.87966L10.6221 2.94551L10.6557 3.01128L10.6895 3.07707L10.7237 3.14298L10.7583 3.20911L10.7935 3.27556L10.8292 3.34244L10.8656 3.40984L10.9027 3.47788L10.9406 3.54663L10.9793 3.61622L10.9991 3.65136L11.0392 3.72238L11.0805 3.79448L11.1228 3.86777L11.1663 3.94234L11.2111 4.0183L11.2571 4.09575L11.3046 4.17478L11.3536 4.2555L11.404 4.33801L11.4561 4.42242L11.5099 4.50882L11.5374 4.55279L11.5938 4.64237L11.6521 4.7342L11.6819 4.78098L11.7431 4.87636L11.8063 4.97425L11.8716 5.07473L11.9391 5.17791L12.0088 5.2839L12.0445 5.33798L12.1178 5.44836L12.1934 5.5618L12.2322 5.61969C11.9662 5.5471 11.726 5.45789 11.5098 5.35879C10.5995 6.54125 10.2336 7.87022 10.0913 8.61856L10.0792 8.68401C10.0676 8.74786 10.0577 8.80689 10.0493 8.86056L10.0415 8.91242L10.0345 8.96061L10.0314 8.98328L10.0257 9.02572L10.0209 9.06418L10.0168 9.09856L10.012 9.14219L10.0087 9.17597L10.0053 9.21489L10.001 9.1879L9.9966 9.21489L9.9941 9.18498L9.99228 9.16583L9.98989 9.14219L9.98511 9.09856L9.98104 9.06418L9.97621 9.02572L9.97057 8.98328L9.96408 8.93698L9.96049 8.91242L9.9526 8.86056C9.94422 8.80689 9.93436 8.74786 9.92279 8.68401L9.91063 8.61856C9.76831 7.87022 9.40245 6.54125 8.4921 5.35879C8.27595 5.45789 8.03571 5.5471 7.76978 5.61969L7.84666 5.50469L7.92108 5.39279L7.95739 5.33798L8.02827 5.23055L8.06284 5.17791L8.13032 5.07473L8.19563 4.97425L8.25884 4.87636L8.32001 4.78098L8.37923 4.688L8.40812 4.64237L8.46453 4.55279L8.51915 4.46536L8.54582 4.42242L8.5979 4.33801L8.64838 4.2555L8.69732 4.17478L8.7448 4.09575L8.79088 4.0183L8.83565 3.94234L8.87916 3.86777L8.92148 3.79448L8.9627 3.72238L9.00288 3.65136L9.04209 3.58132L9.0804 3.51216L9.09925 3.47788L9.13634 3.40984L9.17272 3.34244L9.20845 3.27556L9.2436 3.20911L9.27824 3.14298L9.31244 3.07707L9.34628 3.01128L9.3965 2.9126L9.42973 2.84667L9.46284 2.7805L9.51244 2.6806L9.57882 2.54563L9.61227 2.47716L9.73196 2.23063L9.93403 1.81324L9.99342 1.69118L9.9966 1.66675L10.001 1.67571ZM10.0009 4.16423L9.98536 4.18569L9.96891 4.20787L9.96035 4.21922L9.94257 4.24241L9.9239 4.26625L9.91422 4.2784L9.89419 4.30315L9.88384 4.31574L9.86244 4.34134L9.84011 4.36746L9.81686 4.39408L9.80488 4.40757L9.78022 4.43489L9.75462 4.46263L9.72806 4.49077L9.71442 4.50498L9.68641 4.53367C9.67217 4.54809 9.65756 4.56264 9.64258 4.57729L9.61213 4.60674C9.49352 4.7201 9.35311 4.83906 9.18911 4.95627C9.49142 5.51813 9.69174 6.07205 9.82251 6.58511L9.83758 6.64528C9.8597 6.73525 9.8797 6.8239 9.89775 6.91106L9.9095 6.96895L9.91516 6.99772L9.92606 7.05492L9.93642 7.11164L9.94623 7.16788L9.95553 7.22363L9.96431 7.27886L9.97259 7.33358L9.98038 7.38777L9.9877 7.44141L9.99118 7.46802L9.9978 7.52082L10.0009 7.54701L10.0073 7.49449L10.0107 7.46802L10.0178 7.41465L10.0215 7.38777L10.0293 7.33358L10.0376 7.27886L10.0419 7.25131L10.0509 7.19582L10.0557 7.16788L10.0655 7.11164L10.0758 7.05492L10.0867 6.99772L10.0982 6.94006L10.1102 6.88196L10.1165 6.85274L10.1294 6.79398C10.2571 6.22396 10.469 5.59525 10.8128 4.9563C10.6773 4.85948 10.5579 4.76146 10.4536 4.66638L10.4212 4.63646C10.4106 4.62652 10.4001 4.61662 10.3898 4.60676L10.3593 4.57731L10.3298 4.54815C10.3009 4.51914 10.2733 4.49059 10.2473 4.46264L10.2216 4.4349L10.2092 4.42119L10.185 4.39409L10.1733 4.38072L10.1505 4.35434L10.1286 4.32848L10.1077 4.30316L10.0975 4.29071L10.078 4.26625L10.0593 4.24241L10.0415 4.21922L10.0246 4.19669L10.0086 4.17487L10.0009 4.16423Z" fill="#76777f"/>
<path d="M2.78073 5.82969L2.78631 5.83792L2.77637 5.83723L2.79597 5.85218L2.87207 5.9646L3.26508 6.5432L3.3292 6.63821L3.3922 6.73205L3.45426 6.82511L3.4952 6.88689L3.53585 6.94861L3.59639 7.04129L3.65659 7.13445L3.69661 7.19701L3.7366 7.26005L3.77662 7.3237L3.81672 7.38805L3.85695 7.45324L3.89736 7.51936L3.938 7.58653L3.95843 7.62054L3.99953 7.68949L4.04099 7.75977C4.06182 7.79526 4.08281 7.8313 4.10399 7.86793L4.14659 7.94202L4.18975 8.01784L4.2335 8.09548L4.25562 8.13502L4.30038 8.21563L4.32303 8.25671L4.3689 8.34053L4.41559 8.42662L4.46313 8.5151L4.5116 8.60609L4.56102 8.69969L4.61147 8.79603L4.663 8.8952L4.71564 8.99732L4.76946 9.1025L4.79683 9.15628L4.85252 9.26626L4.90951 9.3796L4.96786 9.49638L5.02763 9.61673L5.08886 9.74077C5.1589 9.4743 5.20172 9.22181 5.22392 8.98523C6.81436 8.77397 8.23701 9.19149 8.909 9.44186L8.96325 9.46232L9.01395 9.48191L9.03795 9.49134L9.08318 9.50942L9.12467 9.52636L9.144 9.53438L9.17975 9.54944L9.21157 9.5631L9.23939 9.57528L9.26314 9.58587L9.29096 9.59853L9.31814 9.61132L9.29694 9.59402L9.3225 9.60374L9.29783 9.58662L9.27295 9.56888L9.24008 9.54496L9.21396 9.52561L9.1846 9.50355L9.15214 9.4788L9.11671 9.45136L9.07842 9.42126L9.05825 9.40521L9.01593 9.37113L8.97107 9.33441C8.41809 8.87807 7.34492 7.8557 6.73279 6.37373C6.92677 6.23623 7.12415 6.07294 7.32008 5.8791L7.25053 5.88369L7.11439 5.89243L6.98212 5.90061L6.85358 5.90823L6.72865 5.9153L6.60721 5.92184L6.48914 5.92786L6.37431 5.93336L6.31807 5.93592L6.20788 5.94067L6.15389 5.94287L6.04805 5.94689L5.99617 5.94873L5.89441 5.95205L5.79522 5.95492L5.69847 5.95735L5.65097 5.9584L5.55765 5.96018L5.46647 5.96154L5.3773 5.9625L5.29001 5.96306L5.2045 5.96323L5.12062 5.96303L5.03827 5.96247L4.95731 5.96155L4.87762 5.96029L4.79908 5.9587L4.72157 5.95679L4.64496 5.95457L4.56914 5.95205L4.53148 5.95068L4.45659 5.94773L4.38218 5.9445L4.30811 5.94101L4.23427 5.93728L4.12367 5.93122L4.04986 5.9269L3.97584 5.92236L3.86416 5.91518L3.71339 5.90496L3.52055 5.89125L2.98314 5.85196L2.80349 5.83914L2.78073 5.82969ZM5.48892 6.97618C5.65492 6.9294 5.83931 6.86467 6.03543 6.77566C6.53047 7.57554 7.12142 8.17499 7.66488 8.61117L7.71202 8.64869C7.73552 8.66724 7.75893 8.68549 7.78222 8.70344L7.82867 8.73892L7.8748 8.7736L7.8249 8.75238L7.77425 8.73127L7.74864 8.72076L7.69687 8.69985L7.64436 8.67911L7.5911 8.65853L7.53712 8.63816L7.48241 8.61799C7.45487 8.60796 7.42706 8.59801 7.39899 8.58816L7.34248 8.5686C7.31405 8.55888 7.28535 8.54926 7.25639 8.53976L7.19811 8.5209C6.63139 8.34008 5.96672 8.20325 5.22356 8.18077C5.20567 7.99768 5.17669 7.83088 5.14213 7.68199L5.13211 7.63993C5.12534 7.61222 5.11838 7.58517 5.11127 7.55878L5.10051 7.5197L5.09506 7.50054L5.08403 7.46298L5.07285 7.42643L5.06155 7.39092L5.05017 7.35644L5.03872 7.32301L5.02724 7.29063L5.01576 7.25931L5.0043 7.22907L4.9929 7.1999L4.98722 7.18572L4.97595 7.15819L4.96481 7.13176L4.95382 7.10644L4.94301 7.08223L4.96893 7.07953L5.00972 7.07476L5.03817 7.07106L5.06758 7.06692L5.08264 7.06468L5.11348 7.05985L5.14523 7.05454L5.17789 7.04872L5.19454 7.04562L5.22851 7.03901L5.26333 7.03185L5.28105 7.02806L5.3171 7.02003L5.35395 7.0114L5.37267 7.00685L5.41068 6.99729L5.44944 6.98707L5.48892 6.97618Z" fill="#B2BDCE"/>
<path d="M11.3825 8.7075C11.3674 8.69879 11.289 7.76973 11.289 7.76973C11.289 7.76973 10.4347 8.14886 10.4296 8.15775C10.2744 8.58699 10.0879 9.47615 10.0095 9.86712C9.92848 9.46864 9.73158 8.53996 9.5811 8.15775C9.56597 8.16647 8.72164 7.76973 8.72164 7.76973C8.72164 7.76973 8.62305 8.69861 8.62818 8.7075C8.92262 9.05639 9.59998 9.66238 9.89959 9.92577C9.51376 9.7966 8.61044 9.50265 8.20394 9.44179C8.20394 9.45923 7.43794 9.99151 7.43794 9.99151C7.43794 9.99151 8.19365 10.5413 8.20394 10.5413C8.65354 10.4609 9.5174 10.1777 9.89547 10.0502C9.5906 10.3195 8.88421 10.9542 8.62818 11.2755C8.64332 11.2843 8.72164 12.2133 8.72164 12.2133C8.72164 12.2133 9.57598 11.8342 9.5811 11.8253C9.73629 11.3961 9.92276 10.5069 10.0012 10.116C10.0822 10.5144 10.2791 11.4431 10.4296 11.8253C10.4447 11.8166 11.289 12.2133 11.289 12.2133C11.289 12.2133 11.3876 11.2844 11.3825 11.2755C11.0881 10.9266 10.4107 10.3207 10.1111 10.0573C10.497 10.1865 11.4003 10.4804 11.8068 10.5413C11.8068 10.5238 12.5728 9.99151 12.5728 9.99151C12.5728 9.99151 11.817 9.44179 11.8068 9.44179C11.3572 9.5221 10.4933 9.80532 10.1153 9.93289C10.4201 9.66355 11.1265 9.02885 11.3825 8.7075Z" fill="#B2BDCE"/>
<path d="M14.9131 10.2597L14.9743 10.3837L15.0341 10.504L15.0924 10.6208L15.1494 10.7342L15.2051 10.8442L15.2325 10.8979L15.2863 11.0031L15.3389 11.1052L15.3905 11.2044L15.4409 11.3007L15.4903 11.3943L15.5388 11.4853L15.5863 11.5738L15.633 11.6599L15.6789 11.7437L15.7016 11.7848L15.7463 11.8654L15.7684 11.905L15.8122 11.9826L15.8553 12.0584L15.8979 12.1325C15.9191 12.1691 15.9401 12.2052 15.9609 12.2407L16.0024 12.3109L16.0435 12.3799L16.0639 12.4139L16.1046 12.4811L16.145 12.5472L16.1852 12.6124L16.2253 12.6767L16.2653 12.7404L16.3053 12.8034L16.3453 12.866L16.4055 12.9591L16.4661 13.0518L16.5067 13.1135L16.5477 13.1753L16.6097 13.2684L16.6727 13.3622L16.7369 13.4572L17.1299 14.0358L17.206 14.1482L17.2256 14.1632L17.2156 14.1625L17.2212 14.1708L17.1984 14.1613L16.9318 14.1422L16.4814 14.1092L16.2885 14.0955L16.1378 14.0853L16.0261 14.0781L15.9521 14.0735L15.8782 14.0692L15.7676 14.0632L15.6938 14.0594L15.6197 14.0559L15.5826 14.0543L15.5079 14.0512L15.4704 14.0498L15.395 14.0471L15.3188 14.0447L15.2417 14.0427L15.2028 14.0417L15.1243 14.0402L15.0446 14.0389L14.9637 14.038C14.9228 14.0376 14.8815 14.0374 14.8396 14.0373L14.7549 14.0373L14.6685 14.0376L14.5803 14.0384L14.5355 14.0389L14.4443 14.0403L14.351 14.042L14.2554 14.0443L14.1574 14.0469L14.057 14.05L13.9539 14.0536L13.9013 14.0555L13.794 14.0598L13.7393 14.0621L13.6276 14.0671L13.5706 14.0698L13.4542 14.0755L13.3344 14.0818L13.2113 14.0886L13.0845 14.096L12.9541 14.1038L12.8875 14.108L12.7514 14.1167L12.6818 14.1213C12.8778 13.9275 13.0752 13.7642 13.2691 13.6267C12.6485 12.1242 11.5539 11.0941 11.0081 10.6473L10.9645 10.6119L10.9437 10.5952L10.904 10.5638L10.8852 10.5491L10.8498 10.5216L10.8173 10.4969L10.788 10.4748L10.7618 10.4555L10.729 10.4316L10.7041 10.4138L10.6794 10.3967L10.705 10.4064L10.6838 10.3891L10.711 10.4019L10.7388 10.4146L10.7625 10.4252L10.7904 10.4374L10.8222 10.451L10.8579 10.4661L10.8773 10.4741L10.9187 10.491L10.964 10.5091L11.0129 10.5282C11.0467 10.5413 11.0829 10.555 11.1214 10.5691L11.1808 10.5907C11.8838 10.8427 13.2538 11.2177 14.778 11.0152C14.8002 10.7786 14.843 10.5261 14.9131 10.2597ZM12.1272 11.2269L12.1733 11.2616L12.2197 11.2971C12.243 11.315 12.2664 11.3333 12.2899 11.3518L12.3371 11.3893C12.8805 11.8255 13.4715 12.425 13.9665 13.2249C14.1626 13.1358 14.347 13.0711 14.513 13.0243L14.5525 13.0134L14.5913 13.0032L14.6293 12.9937L14.648 12.9891L14.6848 12.9805L14.7209 12.9725L14.7386 12.9687L14.7734 12.9615L14.7905 12.9581L14.8241 12.9518L14.8567 12.946L14.8885 12.9407L14.9193 12.9358L14.9344 12.9336L14.9638 12.9295L14.9922 12.9258L15.033 12.921L15.0589 12.9183L15.0481 12.8941L15.0371 12.8688L15.026 12.8423L15.0147 12.8148L15.0033 12.7862L14.9919 12.7565L14.9862 12.7412L14.9747 12.7099L14.969 12.6938L14.9575 12.6609L14.9518 12.6441L14.9404 12.6096L14.9347 12.592L14.9235 12.556C14.9142 12.5255 14.905 12.494 14.896 12.4614L14.8854 12.4218L14.8801 12.4017L14.8698 12.3606C14.8665 12.3467 14.8631 12.3327 14.8598 12.3185L14.8501 12.2755C14.8199 12.1377 14.7946 11.9854 14.7784 11.8197C14.0352 11.7973 13.3706 11.6604 12.8039 11.4796L12.7456 11.4608C12.7166 11.4513 12.6879 11.4416 12.6595 11.4319L12.603 11.4124C12.5749 11.4025 12.5471 11.3926 12.5196 11.3825L12.4648 11.3624L12.4109 11.342L12.3576 11.3214L12.3051 11.3007L12.2533 11.2798L12.2277 11.2692L12.1771 11.2481L12.1272 11.2269Z" fill="#B2BDCE"/>
<path d="M17.1984 5.83914L17.2212 5.82969L17.2156 5.83792L17.2256 5.83723L17.206 5.85218L17.0561 6.07334L16.7803 6.47903L16.7369 6.5432L16.6727 6.63821L16.5889 6.76314L16.5477 6.82511L16.5067 6.88689L16.4661 6.94861L16.4257 7.01036L16.3854 7.07228L16.3453 7.13445L16.3053 7.19701L16.2653 7.26005L16.2253 7.3237L16.1852 7.38805L16.145 7.45324L16.1046 7.51936L16.0639 7.58653L16.023 7.65486L16.0024 7.68949L15.9609 7.75977L15.9191 7.83149L15.8767 7.90477L15.8553 7.94202L15.8122 8.01784L15.7684 8.09548L15.7463 8.13502L15.7016 8.21563L15.6789 8.25671L15.633 8.34053L15.6098 8.38328L15.5627 8.47056L15.5147 8.56028L15.4657 8.65256L15.4409 8.69969L15.3905 8.79603L15.3389 8.8952L15.2863 8.99732L15.2325 9.1025L15.1774 9.21086L15.1494 9.26626L15.0924 9.3796L15.0341 9.49638L14.9743 9.61673L14.9131 9.74077C14.843 9.4743 14.8002 9.22181 14.778 8.98523C13.1876 8.77397 11.7649 9.19149 11.0929 9.44186L11.0387 9.46232L10.988 9.48191L10.9409 9.50051L10.9187 9.50942L10.8773 9.52636L10.8396 9.54208L10.8058 9.55645L10.7625 9.57528L10.7192 9.59476L10.6838 9.61132L10.701 9.59724L10.705 9.59402L10.6794 9.60374L10.7041 9.58662L10.729 9.56888L10.7618 9.54496L10.788 9.52561L10.8173 9.50355L10.8498 9.4788L10.8852 9.45136L10.9235 9.42126L10.9645 9.3885L11.0081 9.3531C11.5539 8.90638 12.6485 7.87628 13.2691 6.37373C13.0752 6.23623 12.8778 6.07294 12.6818 5.8791L12.82 5.88813L12.8875 5.89243L13.0198 5.90061L13.1484 5.90823L13.2733 5.9153L13.3947 5.92184L13.5128 5.92786L13.6276 5.93336L13.6839 5.93592L13.794 5.94067L13.9013 5.94494L14.0058 5.94873L14.1075 5.95205L14.2067 5.95492L14.3035 5.95735L14.3979 5.95934L14.4443 5.96018L14.5355 5.96154L14.6246 5.9625L14.7119 5.96306L14.7974 5.96323L14.8813 5.96303L14.9637 5.96247L15.0043 5.96205L15.0846 5.96096L15.1243 5.96029L15.2028 5.9587L15.2417 5.95779L15.3188 5.95572L15.357 5.95457L15.4328 5.95205L15.5079 5.94924L15.5453 5.94773L15.6197 5.9445L15.6938 5.94101L15.7676 5.93728L15.8414 5.9333L15.9521 5.9269L16.0261 5.92236L16.1004 5.91763L16.2506 5.90758L16.365 5.89959L16.9318 5.85827L17.1528 5.84236L17.1984 5.83914ZM13.9666 6.77566C13.4715 7.57557 12.8805 8.175 12.3371 8.61117L12.2899 8.64869C12.2664 8.66724 12.243 8.68549 12.2197 8.70344L12.1733 8.73892L12.1272 8.7736L12.1771 8.75238L12.2277 8.73127L12.2533 8.72076L12.3051 8.69985L12.3313 8.68946L12.3841 8.6688L12.4109 8.65854L12.4648 8.63816L12.5196 8.61799L12.575 8.59805L12.6311 8.57835C12.6594 8.56857 12.6879 8.55888 12.7167 8.54931L12.7746 8.5303L12.8333 8.51159L12.8926 8.49321C13.4396 8.32625 14.0737 8.20213 14.7784 8.1808C14.7929 8.03259 14.8146 7.89504 14.8407 7.76903L14.8501 7.72503L14.8549 7.70339L14.8648 7.66085L14.8749 7.61928L14.8854 7.5787L14.8907 7.55879L14.9014 7.5197L14.9069 7.50054L14.9179 7.46297L14.9291 7.42642L14.9404 7.3909L14.9461 7.37353L14.9575 7.33957L14.9632 7.32299L14.9747 7.29061L14.9804 7.27481L14.9919 7.24403L14.9976 7.22904L15.009 7.19987L15.0203 7.17179L15.026 7.15816L15.0371 7.13173L15.0481 7.1064L15.0589 7.08219L15.033 7.0795L14.9922 7.07472L14.9638 7.07102L14.9344 7.06689L14.904 7.06229L14.8727 7.05723L14.8405 7.05167L14.8074 7.04559L14.7734 7.03899L14.7386 7.03183L14.7209 7.02803L14.6848 7.02001L14.6665 7.01577L14.6293 7.00683C14.5979 6.99913 14.5658 6.99077 14.5329 6.9817L14.493 6.97047C14.4729 6.96468 14.4526 6.95863 14.432 6.95231L14.3904 6.9393C14.2579 6.89692 14.1156 6.84331 13.9666 6.77566Z" fill="#B2BDCE"/>
<path d="M5.22392 11.0152C5.20172 10.7786 5.1589 10.5261 5.08886 10.2597L5.02763 10.3837L4.96786 10.504L4.90951 10.6208L4.85252 10.7342L4.82451 10.7896L4.76946 10.8979L4.71564 11.0031L4.663 11.1052L4.61147 11.2044L4.56102 11.3007L4.53619 11.3479L4.48725 11.4402L4.43925 11.5299L4.39214 11.6171L4.3689 11.6599L4.32303 11.7437L4.30038 11.7848L4.25562 11.8654L4.2335 11.905L4.18975 11.9826L4.14659 12.0584L4.12522 12.0957L4.08287 12.1689L4.04099 12.2407L3.99953 12.3109L3.97894 12.3456L3.938 12.4139L3.89736 12.4811L3.85695 12.5472L3.81672 12.6124L3.77662 12.6767L3.7366 12.7404L3.69661 12.8034L3.65659 12.866L3.61649 12.9282L3.57626 12.9901L3.53585 13.0518L3.4952 13.1135L3.45426 13.1753L3.41298 13.2373L3.3292 13.3622L3.26508 13.4572L3.22162 13.5214L2.92151 13.9629L2.79597 14.1482L2.77637 14.1632L2.78631 14.1625L2.78073 14.1708L2.80349 14.1613L2.94277 14.1514L3.61933 14.1021L3.77617 14.0912L3.89191 14.0834L4.00654 14.0762L4.08256 14.0716L4.15843 14.0673L4.23427 14.0632L4.30811 14.0594L4.354 14.0572L4.46929 14.0522L4.58576 14.0478L4.6801 14.0448L4.75169 14.0429L4.84843 14.0407L4.94688 14.039L5.04725 14.0379L5.1498 14.0373L5.22827 14.0372L5.30819 14.0375L5.38966 14.0381L5.50087 14.0394L5.58635 14.0408L5.64436 14.0419L5.73302 14.0439L5.82373 14.0463L5.94802 14.0501L6.04388 14.0534L6.14211 14.0571L6.24282 14.0612L6.3461 14.0658L6.45205 14.0708L6.59764 14.0781L6.71022 14.0841L6.865 14.0929L7.02535 14.1025L7.14941 14.1102L7.32008 14.1213C7.12415 13.9275 6.92677 13.7642 6.73279 13.6267C7.34492 12.1448 8.41809 11.1224 8.97107 10.666L9.01593 10.6293L9.05825 10.5952L9.07842 10.5792L9.11671 10.5491L9.15214 10.5216L9.1846 10.4969L9.21396 10.4748L9.24008 10.4555L9.27295 10.4316L9.29783 10.4138L9.3225 10.3967L9.29694 10.4064L9.31814 10.3891L9.28274 10.4057L9.23939 10.4252L9.19615 10.444L9.16236 10.4584L9.12467 10.4741L9.1044 10.4824L9.06103 10.4999L9.03795 10.5091L8.98905 10.5282C8.95525 10.5413 8.91906 10.555 8.88057 10.5691L8.82114 10.5907C8.11817 10.8427 6.74809 11.2177 5.22392 11.0152ZM7.82495 11.2481L7.87485 11.2269C7.82122 11.2669 7.76691 11.3085 7.71206 11.3518L7.66493 11.3893C7.59404 11.4462 7.52235 11.5059 7.45016 11.5684L7.40197 11.6105C6.93547 12.0217 6.45156 12.5524 6.03544 13.2248C5.85502 13.1429 5.68453 13.0816 5.52916 13.0359L5.48897 13.0244C5.45578 13.015 5.42331 13.0064 5.39164 12.9984L5.35402 12.9891L5.31717 12.9805L5.28112 12.9725L5.24589 12.9651L5.21149 12.9582L5.17796 12.9518L5.16152 12.9489L5.12932 12.9433L5.09802 12.9382L5.06766 12.9336L5.03825 12.9295L5.00981 12.9258L4.98236 12.9225L4.95592 12.9196L4.94309 12.9183L4.94847 12.9064L4.95937 12.8816L4.97045 12.8557L4.98166 12.8287L4.99298 12.8007L5.00438 12.7715L5.01584 12.7412L5.02732 12.7099L5.0388 12.6775L5.04453 12.661L5.05595 12.627L5.06163 12.6096L5.07293 12.5741L5.07854 12.556L5.08964 12.5189L5.10059 12.4808L5.11135 12.4418L5.11665 12.4218L5.12707 12.3813L5.13723 12.3397C5.16228 12.2345 5.18462 12.1202 5.20223 11.9973L5.20902 11.9477C5.21446 11.906 5.21935 11.8633 5.22361 11.8197C5.63362 11.8073 6.01974 11.7601 6.3787 11.6899L6.44569 11.6765C6.65681 11.6331 6.85827 11.5819 7.04941 11.5253L7.10943 11.5073C7.14921 11.4952 7.18852 11.4828 7.22738 11.4702L7.2853 11.4512C7.31409 11.4416 7.34261 11.4319 7.37087 11.4222L7.42702 11.4025L7.48245 11.3825L7.53716 11.3624L7.59115 11.342L7.61787 11.3317L7.67075 11.3111L7.69692 11.3007L7.74869 11.2798L7.7743 11.2692L7.82495 11.2481Z" fill="#B2BDCE"/>
<path d="M10.0053 10.7856L10.001 10.8126L10.0002 10.8075L9.9966 10.7856L9.99326 10.8245L9.98989 10.8583L9.98511 10.9019L9.98104 10.9363L9.97621 10.9748L9.97057 11.0172L9.96744 11.0399L9.96049 11.0881L9.9526 11.1399L9.94372 11.1954L9.9338 11.2543C9.93031 11.2745 9.92665 11.2952 9.92279 11.3165L9.91063 11.3819C9.76831 12.1303 9.40245 13.4592 8.4921 14.6417C8.27595 14.5426 8.03571 14.4534 7.76978 14.3808L7.80853 14.4387L7.88417 14.5521L7.95739 14.6625L7.99312 14.7166L8.06284 14.8226L8.13032 14.9257L8.19563 15.0262L8.25884 15.1241L8.32001 15.2195L8.34986 15.2663L8.40812 15.3581L8.46453 15.4477L8.49206 15.4916L8.54582 15.578L8.5979 15.6625L8.64838 15.745L8.69732 15.8257L8.7448 15.9047L8.79088 15.9822L8.83565 16.0581L8.87916 16.1327L8.92148 16.206L8.9627 16.2781L9.00288 16.3491L9.0226 16.3842L9.06136 16.4538L9.09925 16.5226L9.13634 16.5906L9.15462 16.6244L9.19066 16.6915L9.20845 16.7249L9.2436 16.7914L9.27824 16.8575L9.31244 16.9234L9.34628 16.9892L9.37982 17.055L9.41314 17.1208L9.46284 17.22L9.51244 17.3199L9.57882 17.4549L9.66298 17.6275L9.91471 18.1474L9.99342 18.3093L9.9966 18.3338L10.001 18.3248L10.0053 18.3338L10.0085 18.3093L10.0679 18.1873L10.339 17.6275L10.4231 17.4549L10.4895 17.3199L10.5391 17.22L10.5888 17.1208L10.6221 17.055L10.6557 16.9892L10.6895 16.9234L10.7237 16.8575L10.7583 16.7914L10.7758 16.7582L10.8113 16.6915L10.8292 16.658L10.8656 16.5906L10.884 16.5567L10.9215 16.4883L10.9598 16.4192L10.9991 16.3491L11.0392 16.2781L11.0805 16.206L11.1228 16.1327L11.1663 16.0581L11.2111 15.9822L11.2571 15.9047L11.3046 15.8257L11.3536 15.745L11.404 15.6625L11.4561 15.578L11.4828 15.5351L11.5374 15.4477L11.5938 15.3581L11.6227 15.3125L11.6819 15.2195L11.7431 15.1241L11.8063 15.0262L11.8716 14.9257L11.9391 14.8226L11.9737 14.7699L12.0445 14.6625L12.0809 14.6077L12.1553 14.4958L12.2322 14.3808C11.9662 14.4534 11.726 14.5426 11.5098 14.6417C10.5995 13.4592 10.2336 12.1303 10.0913 11.3819L10.0792 11.3165C10.0753 11.2952 10.0716 11.2745 10.0681 11.2543L10.0582 11.1954L10.0493 11.1399L10.0415 11.0881L10.0379 11.0635L10.0314 11.0172L10.0257 10.9748L10.0209 10.9363L10.0168 10.9019L10.012 10.8583L10.0097 10.8347L10.0078 10.8155L10.0053 10.7856ZM9.99783 12.4797L10.001 12.4535L10.0041 12.4797L10.0107 12.5325L10.0142 12.5591L10.0215 12.6128L10.0293 12.667L10.0376 12.7217L10.0464 12.7769L10.0557 12.8327L10.0655 12.8889L10.0759 12.9456L10.0868 13.0028L10.0924 13.0316L10.1042 13.0895C10.1222 13.1766 10.1422 13.2653 10.1643 13.3553L10.1794 13.4154C10.3102 13.9285 10.5105 14.4824 10.8128 15.0443C10.6488 15.1615 10.5084 15.2804 10.3898 15.3938L10.3594 15.4232C10.3344 15.4477 10.3105 15.4718 10.2875 15.4956L10.2605 15.5239L10.2344 15.5518L10.2093 15.5794L10.1851 15.6065L10.1733 15.6198L10.1505 15.6462L10.1395 15.6592L10.1181 15.6848L10.1077 15.6974L10.0877 15.7221L10.0686 15.7463L10.0503 15.7698L10.033 15.7927L10.0166 15.8148L10.001 15.8363L9.98541 15.8148L9.96896 15.7927L9.95163 15.7698L9.9334 15.7463L9.91428 15.7221L9.89425 15.6974L9.8839 15.6848L9.8625 15.6592L9.85145 15.6462L9.82866 15.6198L9.81692 15.6064L9.79273 15.5793L9.76759 15.5518L9.74151 15.5239L9.7281 15.5098L9.70058 15.4812C9.68657 15.4669 9.67221 15.4524 9.65747 15.4378L9.62751 15.4085C9.50571 15.2908 9.36024 15.1665 9.18911 15.0442C9.53291 14.4053 9.74482 13.7766 9.87254 13.2065L9.88545 13.1478L9.89169 13.1186L9.90372 13.0605L9.91519 13.0028L9.92609 12.9456L9.93645 12.8889L9.94627 12.8326L9.95098 12.8047L9.96002 12.7492L9.96434 12.7217L9.97262 12.6669L9.98042 12.6128L9.98413 12.5859L9.99121 12.5325L9.99783 12.4797Z" fill="#B2BDCE"/>
</svg>
