<svg width="20" height="20" viewBox="0 0 20 20" fill="none" xmlns="http://www.w3.org/2000/svg">
<path d="M11.1849 8.48417C11.1785 8.48587 11.1722 8.4877 11.166 8.4894C11.1719 8.49532 11.1774 8.49383 11.1849 8.48417ZM8.87164 8.4894C8.86545 8.4877 8.85899 8.48587 8.85266 8.48417C8.86021 8.49383 8.86572 8.49532 8.87164 8.4894ZM5.26869 11.5596C5.34757 11.5227 5.42648 11.4857 5.50537 11.4488C5.64789 11.389 5.8076 11.3503 5.97866 11.3231C6.39913 11.2564 6.74905 11.4514 7.01407 11.567C7.57355 11.811 8.09062 12.1189 8.56717 12.4538C8.71998 12.5646 8.87286 12.6755 9.0257 12.7863C9.02818 12.7839 9.03062 12.7814 9.0331 12.779C8.52848 11.8138 7.62008 11.5661 7.22855 10.4659C6.86574 9.53374 7.42441 8.55331 8.18257 8.38191C8.43907 8.3239 8.67741 8.42365 8.83944 8.46817C8.82539 8.45022 8.7962 8.37009 8.6781 8.19715C8.39916 7.81737 8.00537 7.62565 7.33208 7.63549C7.17413 7.66432 7.00106 7.67961 6.85875 7.72417C6.50293 7.83557 6.17537 8.04201 5.97129 8.30799C5.73468 8.61636 5.47897 9.18983 5.64589 9.74905C5.7322 10.0383 5.89081 10.3032 6.04522 10.4954C6.24011 10.7157 6.30369 10.7758 6.40762 10.8723C5.81127 10.8714 5.46407 11.1615 5.26869 11.5596ZM10.9678 12.779L10.9752 12.7863C11.1281 12.6755 11.2809 12.5646 11.4337 12.4538C11.9103 12.1189 12.4274 11.811 12.9869 11.567C13.2519 11.4514 13.6018 11.2564 14.0222 11.3231C14.1933 11.3503 14.353 11.389 14.4956 11.4488C14.5744 11.4857 14.6534 11.5227 14.7322 11.5596C14.5368 11.1615 14.1897 10.8714 13.5933 10.8723C13.6973 10.7758 13.7608 10.7157 13.9557 10.4954C14.1101 10.3032 14.2687 10.0383 14.355 9.74905C14.522 9.18983 14.2662 8.61636 14.0296 8.30799C13.8256 8.04201 13.498 7.83557 13.1422 7.72417C12.9999 7.67961 12.8268 7.66432 12.6688 7.63549C11.9956 7.62565 11.6018 7.81737 11.3228 8.19715C11.2047 8.37009 11.1755 8.45022 11.1615 8.46817C11.3235 8.42365 11.5619 8.3239 11.8183 8.38191C12.5765 8.55331 13.1351 9.53374 12.7724 10.4659C12.3808 11.5661 11.4724 11.8138 10.9678 12.779ZM17.8088 10.5324C17.667 10.414 17.5388 10.3728 17.3281 10.3255C16.997 10.2972 16.8106 10.504 16.6181 10.695C16.5614 10.7418 16.5047 10.7886 16.448 10.8354C16.6329 10.9754 16.7385 11.1824 16.9657 11.3601C17.3819 11.6173 18.0472 11.0935 18.3339 10.9388C18.2447 10.8458 18.2333 10.8866 17.8088 10.5324ZM17.6091 5.70672C17.7556 5.30093 17.757 5.23493 17.794 5.15246C17.493 5.15982 17.0865 5.16722 16.729 5.18201C16.0537 5.23891 15.7218 5.55462 15.6121 6.00965C15.5628 6.37254 15.5618 6.53781 15.4792 6.85217C15.6458 6.86692 15.6945 6.87231 15.9599 6.91866C17.0937 7.19987 17.3883 6.41908 17.6091 5.70672ZM16.4998 9.38693C16.4465 9.07627 16.4186 8.76959 16.3371 8.50014C16.1398 7.84764 15.8854 7.33273 15.4718 6.9039C15.0059 6.42086 14.4134 6.00777 13.6968 5.78058C13.3746 5.70509 13.1058 5.6401 12.8167 5.61065C11.7966 5.59166 10.979 5.99222 10.5241 6.51221C10.4515 6.59518 10.356 6.75603 10.3466 6.82998C10.3191 7.04601 10.6163 7.5173 10.7755 7.52466C10.8569 7.40643 10.9383 7.28817 11.0196 7.16991C11.2083 6.92042 11.5097 6.72883 11.8405 6.62307C12.0098 6.56895 12.1929 6.5489 12.3804 6.51221C12.7866 6.43271 13.2754 6.52775 13.5785 6.62307C14.5803 6.89043 15.2335 7.75635 15.4644 8.50014C15.6088 8.86943 15.7348 9.49144 15.6493 10.0151C15.4793 11.2912 14.8359 12.3176 13.8891 12.9933C13.6085 13.1935 13.2977 13.3542 12.9942 13.5327C12.4173 13.8722 11.7201 14.0603 11.1601 14.4121C10.8009 14.6378 10.5011 14.9721 10.2652 15.3211C10.2226 15.3842 10.0466 15.6941 10.0004 15.743C9.95433 15.6941 9.77835 15.3842 9.73568 15.3211C9.49975 14.9721 9.20002 14.6378 8.84079 14.4121C8.28077 14.0603 7.58368 13.8722 7.00667 13.5327C6.70321 13.3542 6.39239 13.1935 6.11181 12.9933C5.16497 12.3176 4.52162 11.2912 4.35163 10.0151C4.2661 9.49144 4.39214 8.86943 4.53652 8.50014C4.76746 7.75635 5.42059 6.89043 6.42242 6.62307C6.72551 6.52775 7.21432 6.43271 7.62052 6.51221C7.80798 6.5489 7.99111 6.56895 8.16041 6.62307C8.49117 6.72883 8.7926 6.92042 8.98131 7.16991C9.06267 7.28817 9.14403 7.40643 9.22538 7.52466C9.38465 7.5173 9.68184 7.04601 9.65432 6.82998C9.64491 6.75603 9.54941 6.59518 9.47683 6.51221C9.02194 5.99222 8.20433 5.59166 7.18419 5.61065C6.89515 5.6401 6.62631 5.70509 6.3041 5.78058C5.58754 6.00777 4.99498 6.42086 4.52915 6.9039C4.11555 7.33273 3.86109 7.84764 3.66382 8.50014C3.58237 8.76959 3.55443 9.07627 3.50114 9.38693C3.40432 10.1308 3.58199 10.967 3.73778 11.4635C4.32683 13.3408 5.48565 13.9775 7.02887 14.8777C7.53455 15.1253 8.10764 15.3816 8.56717 15.7276C8.99902 16.0528 9.29897 16.4687 9.56559 16.9765C9.68253 17.1752 9.97292 17.703 9.98712 17.9594C9.99157 17.9571 9.99602 17.9549 10.0004 17.9527C10.0049 17.9549 10.0093 17.9571 10.0138 17.9594C10.028 17.703 10.3184 17.1752 10.4353 16.9765C10.702 16.4687 11.0019 16.0528 11.4337 15.7276C11.8933 15.3816 12.4664 15.1253 12.9721 14.8777C14.5153 13.9775 15.6741 13.3408 16.2631 11.4635C16.4189 10.967 16.5966 10.1308 16.4998 9.38693ZM9.48423 5.81756C9.83795 6.12057 9.97671 6.29452 9.99869 6.32319C9.99888 6.32598 9.99897 6.32748 9.99897 6.32748C9.99897 6.32748 9.99947 6.32679 10.0004 6.32551C10.0014 6.32679 10.0019 6.32748 10.0019 6.32748L10.0022 6.32319C10.0242 6.29452 10.1629 6.12057 10.5167 5.81756C10.7751 5.5962 11.0552 5.32208 11.1897 4.9825C11.5659 4.03265 10.6872 3.06172 10.3318 2.52898C10.1187 2.20958 10.0389 2.09529 10.0093 2.05766V2.04864C10.0045 2.05183 10.0147 2.03084 10.0004 2.04688C9.98621 2.03084 9.9964 2.05183 9.9916 2.04864V2.05766C9.96207 2.09529 9.88219 2.20958 9.66911 2.52898C9.31374 3.06172 8.43496 4.03265 8.81122 4.9825C8.94575 5.32208 9.22582 5.5962 9.48423 5.81756ZM4.04102 6.91866C4.30642 6.87231 4.35508 6.86692 4.52175 6.85217C4.4391 6.53781 4.43813 6.37254 4.38878 6.00965C4.27911 5.55462 3.94719 5.23891 3.27186 5.18201C2.91444 5.16722 2.50792 5.15982 2.20688 5.15246C2.24388 5.23493 2.24529 5.30093 2.3918 5.70672C2.61258 6.41908 2.90726 7.19987 4.04102 6.91866ZM2.67281 10.3255C2.46209 10.3728 2.33386 10.414 2.19211 10.5324C1.7676 10.8866 1.75622 10.8458 1.66699 10.9388C1.95371 11.0935 2.61897 11.6173 3.03521 11.3601C3.26242 11.1824 3.36801 10.9754 3.5529 10.8354C3.49621 10.7886 3.4395 10.7418 3.38281 10.695C3.19034 10.504 3.00389 10.2972 2.67281 10.3255Z" fill="#76777f"/>
</svg>
