<svg width="20" height="20" viewBox="0 0 20 20" fill="none" xmlns="http://www.w3.org/2000/svg">
<path d="M17.7619 7.80094C17.9528 8.10708 18.1352 8.49739 18.3341 8.78525C18.2742 8.37266 18.117 7.36855 17.4762 6.1077C17.2802 5.77202 17.107 5.47309 16.8874 5.16593C15.8597 3.77033 14.2719 2.55604 12.5389 2.02948C12.0373 1.87297 11.492 1.77483 10.9071 1.71839C10.4506 1.68938 10.0519 1.66048 10.0408 1.66794C10.3183 1.78846 10.32 1.78002 10.4492 1.84463C10.7128 1.982 10.9766 2.11945 11.2402 2.25683C12.3903 2.94498 13.4469 3.75722 14.0004 5.04151C14.2098 5.52764 14.324 6.22255 14.2211 6.97384C14.1328 7.36789 14.0316 7.66163 13.8826 7.94395C13.6509 8.38285 13.3307 8.77481 12.9401 9.05447C12.6784 9.2418 12.3781 9.39582 12.0312 9.49193C10.4293 9.93587 9.1074 8.93023 8.81669 8.01126C8.56653 7.37374 8.74075 6.5931 9.19537 6.24455C9.38192 6.09982 9.59735 6.02285 9.86016 5.95007C10.015 5.90723 10.2448 5.8642 10.4155 5.89121C10.2414 5.72535 10.0083 5.58622 9.82648 5.46216C9.02161 4.95795 7.87177 4.614 6.59511 4.93213C5.62019 5.19196 4.98508 5.58521 4.33802 6.12456C4.1029 6.336 3.88536 6.48862 3.69191 6.7241C3.61232 6.80731 3.51464 6.89017 3.47269 6.93046C3.47241 6.93652 3.47196 6.94251 3.47171 6.94857C3.44252 6.96318 3.44795 6.95422 3.47269 6.93046C3.52253 5.8621 3.99155 4.98766 4.41561 4.26753C4.58671 3.97869 4.73261 3.70663 4.92894 3.40097C4.45798 3.74566 3.99334 4.17822 3.66517 4.58573C2.68205 5.80846 2.13883 6.77665 1.78949 8.65558C1.68933 9.22474 1.61983 10.0562 1.70598 10.7455C1.74957 11.1132 1.77337 11.4107 1.84903 11.7213C2.17153 13.1308 2.54257 13.6667 2.76514 14.1128C2.71958 13.8219 2.70928 13.5781 2.69786 13.2299C2.70069 13.0589 2.69505 12.8208 2.69786 12.6497C2.70069 12.5179 2.7287 12.3611 2.7315 12.2293C2.75116 11.9377 2.77075 11.7388 2.79879 11.4977C2.88647 10.9396 3.0322 10.3811 3.22709 9.94183C3.58144 9.14307 4.06599 8.5045 4.93521 8.05856C5.76672 7.59611 7.11859 7.57197 7.95837 8.06171C8.57491 8.42132 9.06948 9.00471 9.30902 9.63936C9.66408 10.6486 9.31134 11.8344 8.63999 12.3523C7.81889 12.8667 7.10755 12.7891 6.61743 12.2209C6.37614 11.9664 6.38259 11.963 6.29217 11.7466H6.28376C6.13674 12.4523 6.18678 13.3081 6.40715 13.9362C6.90541 15.3085 7.959 16.1882 9.26269 16.7186C9.62468 16.8659 10.196 17.0863 10.6848 17.1729V17.1813C10.5586 17.2346 10.4324 17.2879 10.3062 17.3411C9.85119 17.5219 9.37358 17.6183 8.78301 17.6861C8.525 17.6945 8.26689 17.7029 8.00884 17.7113C7.64418 17.7289 7.26425 17.7167 6.92023 17.7118C7.08169 17.7995 7.50091 17.9344 7.64699 17.9805C8.33761 18.1984 9.10603 18.334 10.02 18.3339C10.2613 18.3255 10.5025 18.317 10.7437 18.3086C11.2719 18.2201 11.7955 18.1523 12.2613 18.0144C14.4625 17.3634 16.1331 16.0457 17.2238 14.1801C16.7781 14.448 16.0014 15.1794 14.0256 15.7595C11.5992 16.3581 9.7157 14.9955 9.42674 13.0029C9.34431 12.5286 9.45779 11.9714 9.58659 11.6406C9.95086 10.7052 10.6176 10.0845 11.7114 9.8789C12.6919 9.69461 13.5235 10.337 13.708 11.01C13.8113 11.5515 13.5894 12.0295 13.4282 12.3776C13.5302 12.3347 13.6055 12.3123 13.689 12.2766C14.0535 12.1205 14.3721 11.9432 14.6736 11.7297C15.4692 11.1663 15.926 10.3967 16.223 9.32827C16.2869 9.01071 16.3625 8.50373 16.3575 7.95765C16.3435 7.74733 16.3211 7.53729 16.307 7.327C16.2566 7.04377 16.2145 6.81137 16.164 6.52814C16.1023 6.30384 16.0323 6.04614 15.9706 5.82184C16.1977 5.98161 16.9086 6.37864 17.7619 7.80094" fill="#76777f"/>
</svg>
