<svg width="20" height="20" viewBox="0 0 20 20" fill="none" xmlns="http://www.w3.org/2000/svg">
<path d="M10.0001 1.66675C10.0001 1.66675 6.34953 4.39151 4.69222 6.87833C4.85889 8.02492 5.49185 9.46314 5.98151 10.2625C6.57164 9.48849 9.05008 7.23782 9.96661 6.89525C11.4356 8.11329 11.6745 9.19646 11.6745 9.19646C11.6745 9.19646 10.2386 10.6475 9.79917 11.0408C10.1507 11.5991 10.4354 11.8192 10.4354 11.8192C10.4354 11.8192 12.5998 10.22 13.215 9.38259C11.9218 6.75618 9.96661 5.03397 9.96661 5.03397C9.96661 5.03397 6.71818 7.81323 6.46709 8.00355C6.86462 6.26534 8.11262 4.55127 9.98335 2.4451C10.5735 3.21905 14.4836 7.42504 16.028 12.2591C16.8148 11.3751 17.2043 10.8758 17.7024 9.99174C15.8938 6.5777 11.8838 3.07113 10.0001 1.66675ZM10.0336 13.1052C8.56465 11.8871 8.32573 10.804 8.32573 10.804C8.32573 10.804 9.76164 9.35291 10.2011 8.95961C9.84952 8.40134 9.5648 8.18126 9.5648 8.18126C9.5648 8.18126 7.40051 9.78044 6.78527 10.6178C8.07848 13.2442 10.0336 14.9664 10.0336 14.9664C10.0336 14.9664 13.2821 12.1872 13.5331 11.9969C13.1356 13.7351 11.8876 15.4492 10.0169 17.5553C9.42676 16.7814 5.51659 12.5754 3.97226 7.74132C3.18546 8.62529 2.79595 9.12463 2.29785 10.0087C4.10646 13.4227 8.11646 16.9293 10.0001 18.3337C10.0001 18.3337 13.6507 15.6089 15.308 13.1221C15.1414 11.9755 14.5084 10.5373 14.0187 9.73797C13.4286 10.5119 10.9502 12.7626 10.0336 13.1052Z" fill="#76777f"/>
</svg>
