<svg width="20" height="20" viewBox="0 0 20 20" fill="none" xmlns="http://www.w3.org/2000/svg">
<path d="M17.8762 7.33612C16.8631 4.7271 15.1009 2.923 12.3426 2.06414C11.599 1.83263 10.7458 1.72438 9.76986 1.73971C9.52614 1.75774 9.28237 1.77575 9.03866 1.79378C8.56993 1.87824 8.12183 1.93351 7.70265 2.06414C5.96146 2.60677 4.49955 3.5455 3.50503 4.83981C3.08892 5.38136 2.0226 6.54713 2.96341 7.29107C3.291 7.5501 3.891 7.70423 4.33553 7.43525C4.59151 7.28037 4.74926 6.99806 4.93132 6.76837C5.20533 6.42268 5.55561 6.08189 5.90626 5.8131C6.67046 5.22729 7.4993 4.80656 8.59633 4.53341C10.1724 4.14098 12.1262 4.54988 13.1641 5.15524C14.6928 6.0469 15.8793 7.25947 16.4589 9.09345C16.5726 9.45295 16.6376 9.83586 16.7117 10.238C16.8098 11.0149 16.7492 11.9888 16.5853 12.6442C16.1301 14.4644 15.1611 15.7808 13.7959 16.6905C13.3045 17.018 12.7368 17.337 12.0808 17.5286C12.2222 17.4685 12.3637 17.4085 12.5051 17.3484C12.7578 17.2042 13.0106 17.06 13.2633 16.9158C14.39 16.1265 15.1997 15.0712 15.6375 13.5904C15.9383 12.4141 15.836 11.1771 15.5292 10.292C14.9013 8.54312 13.5925 7.18461 11.7558 6.61516C10.8549 6.27555 9.49796 6.26022 8.53314 6.54307C8.10559 6.66841 7.64586 6.79653 7.40475 7.11083C6.96006 7.6905 7.19377 8.45469 7.71167 8.77803C8.18848 9.07572 8.62428 8.85627 9.10185 8.74199C9.4716 8.6535 10.0047 8.60167 10.4379 8.66988C12.6998 8.91604 14.217 10.5783 14.473 12.6532C14.5793 13.7112 14.2514 14.7451 13.8952 15.3477C13.3227 16.3166 12.4888 17.0478 11.3135 17.4115C10.773 17.5787 10.0122 17.6287 9.33655 17.5557C8.68039 17.5104 8.05048 17.4218 7.46794 17.2493C6.60346 16.9932 5.86999 16.6471 5.14797 16.2579C5.14496 16.264 5.14195 16.27 5.13895 16.276C5.65818 16.8987 6.29427 17.4677 7.10686 17.817C7.6009 18.013 8.14116 18.1209 8.71369 18.2406C9.67984 18.3899 10.9263 18.3591 11.7648 18.1504C13.7146 17.7443 15.2883 16.6504 16.468 15.2756C17.0773 14.4945 17.615 13.6175 17.9484 12.563C18.0876 12.1227 18.1714 11.6596 18.2644 11.1662C18.4512 9.73418 18.239 8.27044 17.8762 7.33612ZM8.59637 13.3561C8.76088 13.2249 8.92399 13.0889 9.13799 13.0047C9.2403 12.9806 9.34262 12.9566 9.44493 12.9326C9.62168 12.9017 9.82088 12.939 9.95946 12.9776C10.7145 13.1881 10.5465 13.8519 10.9434 14.3655C11.2718 14.7904 11.8956 14.9107 12.3697 14.5367C12.8835 13.9984 12.9069 13.4259 12.6134 12.7253C12.3605 11.989 11.6118 11.4054 10.8261 11.1753C10.5715 11.1094 10.313 11.0958 10.0136 11.0671C9.83611 11.0821 9.65855 11.0972 9.48104 11.1122C9.14219 11.1865 8.82355 11.2824 8.56026 11.4366C7.6352 11.9783 6.68917 13.134 7.13397 14.8431C7.22812 15.1492 7.35557 15.442 7.52215 15.6812C7.92751 16.2635 8.48351 16.6794 9.24632 16.9068C11.3406 17.4027 12.46 15.7291 12.5773 15.4649C12.3637 15.6151 12.2764 15.7113 12.0989 15.8885C11.7263 16.1741 11.3256 16.4231 10.799 16.5554C9.51152 16.8224 8.52257 16.1012 8.19015 15.3117C8.02181 14.947 7.9759 14.346 8.14502 13.9419C8.24114 13.7122 8.41334 13.5022 8.59637 13.3561ZM4.27231 13.0317C3.96681 13.0654 3.69952 13.2617 3.59527 13.6355C3.45099 14.1528 3.93728 14.6792 4.4709 14.6178C5.5056 14.4341 5.32671 12.9418 4.27231 13.0317ZM3.92932 10.6074C4.28403 9.74603 3.48984 8.91475 2.7558 9.03936C2.65952 9.06339 2.56321 9.08743 2.46693 9.11146C2.14038 9.24278 1.88637 9.52518 1.78087 9.87748C1.56612 10.5946 2.19476 11.3605 2.96342 11.3014C3.43615 11.2268 3.7458 10.9888 3.92932 10.6074Z" fill="#76777f"/>
</svg>
