<svg width="20" height="20" viewBox="0 0 20 20" fill="none" xmlns="http://www.w3.org/2000/svg">
<path d="M10.7207 14.16V14.1686C10.8759 14.1937 11.3156 13.9429 11.4427 13.8681C12.0349 13.5193 12.7193 12.9928 12.4054 11.9705C12.0915 10.9481 11.2509 10.3358 9.88694 10.3562C9.8096 10.3648 9.73222 10.3734 9.65486 10.382C9.50016 10.422 9.34542 10.4621 9.19072 10.5022C8.55863 10.7498 8.23753 11.1952 7.95299 11.7901V11.8159C8.97102 11.2588 10.2069 11.4431 10.8067 12.2796C11.2043 12.8343 11.2316 13.6874 10.7207 14.16ZM16.2905 10.6825C16.0245 10.2566 15.6327 9.71958 15.2504 9.41171C14.3357 8.67506 13.6663 8.10358 13.2305 6.87012C13.1476 6.63546 13.0475 6.3601 13.0242 6.08016C12.8802 6.12777 12.6541 6.54131 12.5687 6.68122C12.4453 6.88322 12.3262 7.11021 12.2507 7.35954C12.0635 7.97697 12.2635 8.63232 12.5343 9.01673C12.7657 9.34521 13.0983 9.6538 13.136 10.1673C12.3696 9.47573 11.1644 8.15702 11.4685 6.51808C11.5512 6.07218 11.6692 5.68069 11.7693 5.29022V5.28163C11.7636 5.27877 11.7578 5.2759 11.7521 5.27304C11.5831 5.38465 11.414 5.49631 11.245 5.60792C10.7059 6.00349 9.65704 7.01469 9.98147 8.08939C10.0607 8.35182 10.2076 8.54435 10.3597 8.73337C10.4198 8.79346 10.48 8.85359 10.5402 8.91368C10.2969 8.78368 10.086 8.60021 9.91271 8.3985C9.78796 8.25329 9.67957 8.08566 9.60328 7.8919C9.43705 7.46976 9.55955 6.96027 9.72361 6.63829C9.92658 6.23994 10.2144 5.85054 10.5488 5.58216C10.8433 5.34572 11.2005 5.05683 11.3223 4.65482C11.5394 3.93867 10.833 2.96776 10.5574 2.57691C10.4438 2.41592 9.97721 1.71682 9.83535 1.66675C9.74248 3.13699 8.99427 3.94803 8.32257 4.83513C7.84779 5.46217 7.33041 6.24663 7.76387 7.29944C8.5895 9.3048 11.5718 9.16638 12.8351 10.734C12.9525 10.8796 13.0938 11.0087 13.1961 11.1719C13.5045 11.6635 13.758 12.5611 13.5228 13.3271C13.1908 14.4078 12.2256 14.952 11.0645 15.2075C10.1714 15.4041 9.09437 15.1795 8.70077 14.6752C8.18277 14.0114 8.41747 13.0925 8.96722 12.6574C9.06143 12.5828 9.15361 12.4771 9.27665 12.4341C9.27952 12.4284 9.28239 12.4227 9.28525 12.4169C9.1499 12.3488 8.97312 12.3591 8.79532 12.3311C7.80177 12.1746 6.98293 13.0584 7.29113 14.0226C7.56498 14.8794 8.67098 15.3643 9.62046 15.5682C10.2977 15.7135 11.1687 15.6351 11.7607 15.4737C13.256 15.066 14.7963 14.0986 15.1129 12.5372C15.261 11.8066 15.05 10.9963 14.8464 10.4678C14.7748 10.2961 14.7032 10.1244 14.6315 9.95264C15.4103 10.3644 16.6107 11.4153 16.1615 12.7346C16.0822 12.9676 15.9752 13.1931 15.8435 13.3786C15.4515 13.9308 14.8577 14.2383 14.262 14.5893C13.4712 15.0552 12.6189 15.4554 11.8467 15.9374C11.2565 16.3266 10.6662 16.7159 10.076 17.1051C9.57969 16.7613 9.09009 16.3982 8.56324 16.0834C8.06763 15.82 7.57186 15.5567 7.07625 15.2934C6.07037 14.7077 4.89394 14.3085 4.29135 13.3271C4.18262 13.15 4.09874 12.9312 4.04209 12.7089C3.72271 11.4553 4.4613 10.5576 5.11651 10.0643C5.2848 9.93755 5.4965 9.73459 5.71818 9.67788C5.61791 9.80379 5.51761 9.92976 5.41734 10.0557C5.16906 10.4054 4.95492 10.8039 4.84146 11.2835C4.50305 12.7141 5.58701 13.7313 6.34564 14.2373C6.57305 14.3889 6.94111 14.6684 7.23096 14.7267C7.11637 14.5922 7.00174 14.4576 6.88715 14.3231C6.66404 14.0204 6.48083 13.6939 6.38002 13.267C6.22939 12.6291 6.42278 11.9491 6.6121 11.5154C7.11894 10.3544 8.4021 9.46894 10.0932 9.49756C10.0961 9.4947 10.0989 9.49184 10.1018 9.48897V9.48039C8.6797 8.93152 6.75453 8.17559 6.784 6.22614C6.78114 6.22328 6.77827 6.22041 6.7754 6.21755H6.76681C5.84425 8.43727 3.6483 9.67683 3.16537 12.2882C3.01294 13.1124 3.47822 13.8226 3.88737 14.1514C4.59633 14.7212 5.40408 15.1693 6.21671 15.6454C6.79025 15.9815 7.38539 16.2663 7.91858 16.6415C8.45747 17.0206 8.97904 17.4143 9.50013 17.8092C9.71213 17.9838 9.9242 18.1584 10.1362 18.333C10.1802 18.3533 10.6097 17.9119 10.6949 17.8436C11.2973 17.3604 11.8843 16.8786 12.5687 16.4697C13.3329 16.0132 14.158 15.632 14.8808 15.1302C15.36 14.7977 15.8705 14.4319 16.2303 13.9797C16.46 13.691 16.6697 13.3828 16.789 12.9836C17.0426 12.1351 16.6106 11.1951 16.2905 10.6825Z" fill="#76777f"/>
</svg>
